<svg xmlns="http://www.w3.org/2000/svg" aria-hidden="true">
  <defs>
    <symbol id="icon-x" viewBox="0 0 32 32">
      <path fill="none" stroke-linecap="round" stroke-linejoin="round" stroke-width="2.909" d="M24 8 8 24M8 8l16 16" style="stroke:var(--color1, #f9f9f9)"/>
    </symbol>
   
    <symbol id="icon-eye-off" viewBox="0 0 32 32">
      <path fill="none" stroke="#f9f9f9" stroke-linejoin="round" stroke-width="2.08" d="M23.92 23.92A13.43 13.43 0 0 1 16 26.667C6.666 26.667 1.333 16 1.333 16a24.614 24.614 0 0 1 6.746-7.92M13.2 5.653a12.161 12.161 0 0 1 2.8-.32C25.333 5.333 30.666 16 30.666 16a24.646 24.646 0 0 1-2.88 4.253m-8.959-1.426a4.01 4.01 0 0 1-2.855 1.273 3.996 3.996 0 0 1-3.779-2.501 3.98 3.98 0 0 1 .055-3.126 4.01 4.01 0 0 1 .927-1.298" style="stroke:var(--color1, #f9f9f9)"/>
      <path fill="none" stroke="#f9f9f9" stroke-linecap="round" stroke-linejoin="round" stroke-width="2.08" d="m1.334 1.333 29.333 29.333" style="stroke:var(--color1, #f9f9f9)"/>
    </symbol>
    <symbol id="icon-eye" viewBox="0 0 32 32">
      <path fill="none" stroke="#f9f9f9" stroke-linejoin="round" stroke-width="2.08" d="M16 5.333C25.333 5.333 30.666 16 30.666 16S25.333 26.667 16 26.667C6.666 26.667 1.333 16 1.333 16S6.666 5.333 16 5.333z" style="stroke:var(--color1, #f9f9f9)"/>
      <path fill="none" stroke="#f9f9f9" stroke-linejoin="round" stroke-width="2.08" d="M16 20a4 4 0 1 1 0-8 4 4 0 0 1 0 8z" style="stroke:var(--color1, #f9f9f9)"/>
    </symbol>
    <symbol id="icon-heart-circle" viewBox="0 0 32 32">
<path  d="M15.991 7.561c-2.559-3.022-6.827-3.834-10.033-1.068s-3.658 7.393-1.14 10.665c1.613 2.096 5.743 5.983 8.505 8.506 0.918 0.839 1.376 1.258 1.926 1.426 0.473 0.145 1.012 0.145 1.485 0 0.55-0.168 1.008-0.588 1.926-1.426 2.761-2.524 6.892-6.41 8.505-8.506 2.518-3.272 2.122-7.928-1.14-10.665s-7.474-1.954-10.033 1.068z"></path>
 </symbol>
   <symbol id="icon-close-white" viewBox="0 0 32 32" fill="none">
    <path d="M24 8L8 24"  stroke-width="3" stroke-linecap="round" stroke-linejoin="round" />
  <path d="M8 8L24 24"  stroke-width="3" stroke-linecap="round" stroke-linejoin="round" />
    </symbol>
<symbol id='icon-burger-menu'  viewBox="0 0 32 32">
<path d="M4 16H28" stroke="currentColor" stroke-width="3" stroke-linecap="round" stroke-linejoin="round"/>
<path d="M4 8H28" stroke="currentColor" stroke-width="3" stroke-linecap="round" stroke-linejoin="round"/>
<path d="M4 24H28" stroke="currentColor" stroke-width="3" stroke-linecap="round" stroke-linejoin="round"/>
</symbol>
    <symbol id="icon-hourglass" viewBox="0 0 32 32">
      <path stroke-linecap="round" stroke-linejoin="round" stroke-width="3.2" d="m16 16-5.697-4.748c-.846-.705-1.27-1.058-1.574-1.49a3.978 3.978 0 0 1-.591-1.263c-.137-.511-.137-1.061-.137-2.163V2.667M16 16l5.697-4.748c.847-.705 1.27-1.058 1.574-1.49.27-.383.47-.811.592-1.263C24 7.988 24 7.438 24 6.336V2.667M16 16l-5.697 4.748c-.846.705-1.27 1.058-1.574 1.491-.27.383-.47.81-.591 1.263-.137.51-.137 1.061-.137 2.163v3.669M16 16l5.697 4.748c.847.705 1.27 1.058 1.574 1.491.27.383.47.81.592 1.263.137.51.137 1.061.137 2.163v3.669M5.333 2.667h21.333M5.333 29.333h21.333"/>
    </symbol>
   
<symbol id="icon-user-circle-o" viewBox="0 0 28 28">
<path d="M14 0c7.734 0 14 6.266 14 14 0 7.688-6.234 14-14 14-7.75 0-14-6.297-14-14 0-7.734 6.266-14 14-14zM23.672 21.109c1.453-2 2.328-4.453 2.328-7.109 0-6.609-5.391-12-12-12s-12 5.391-12 12c0 2.656 0.875 5.109 2.328 7.109 0.562-2.797 1.922-5.109 4.781-5.109 1.266 1.234 2.984 2 4.891 2s3.625-0.766 4.891-2c2.859 0 4.219 2.312 4.781 5.109zM20 11c0-3.313-2.688-6-6-6s-6 2.688-6 6 2.688 6 6 6 6-2.688 6-6z"></path>
</symbol>
  <symbol id="close-eye" fill="none" xmlns="http://www.w3.org/2000/svg">
  <g clip-path="url(#clip0_55848_2014)">
    <path d="M16.4463 16.445C14.8793 17.6394 12.9713 18.3011 11.0013 18.3333C4.58464 18.3333 0.917969 11 0.917969 11C2.0582 8.87507 3.63968 7.01855 5.5563 5.555M9.0763 3.88666C9.70727 3.73897 10.3533 3.66514 11.0013 3.66666C17.418 3.66666 21.0846 11 21.0846 11C20.5282 12.041 19.8646 13.021 19.1046 13.9242M12.9446 12.9433C12.6929 13.2135 12.3893 13.4302 12.0519 13.5805C11.7146 13.7308 11.3505 13.8117 10.9812 13.8182C10.612 13.8247 10.2452 13.7568 9.90278 13.6184C9.56036 13.4801 9.2493 13.2743 8.98816 13.0131C8.72703 12.752 8.52116 12.4409 8.38285 12.0985C8.24454 11.7561 8.17662 11.3893 8.18313 11.0201C8.18965 10.6508 8.27047 10.2867 8.42077 9.94936C8.57108 9.61203 8.78778 9.30843 9.05797 9.05666" stroke="#F6B83D" stroke-width="2" stroke-linecap="round" stroke-linejoin="round" />
    <path d="M0.917969 0.916672L21.0846 21.0833" stroke="#F6B83D" stroke-width="2" stroke-linecap="round" stroke-linejoin="round" />
  </g>
</symbol>
<symbol id="open-eye" fill="none" xmlns="http://www.w3.org/2000/svg">
  <g clip-path="url(#clip0_55848_2020)">
    <path d="M0.916016 11C0.916016 11 4.58268 3.66667 10.9993 3.66667C17.416 3.66667 21.0827 11 21.0827 11C21.0827 11 17.416 18.3333 10.9993 18.3333C4.58268 18.3333 0.916016 11 0.916016 11Z" stroke="#F6B83D" stroke-width="2" stroke-linecap="round" stroke-linejoin="round" />
    <path d="M11 13.75C12.5188 13.75 13.75 12.5188 13.75 11C13.75 9.48122 12.5188 8.25 11 8.25C9.48122 8.25 8.25 9.48122 8.25 11C8.25 12.5188 9.48122 13.75 11 13.75Z" stroke="#F6B83D" stroke-width="2" stroke-linecap="round" stroke-linejoin="round" />
  </g>
</symbol>  
   <symbol id="red-false" fill="none" xmlns="http://www.w3.org/2000/svg">
  <path d="M17.4163 4.58331L4.58301 17.4166M4.58305 4.58331L17.4163 17.4166" stroke="#EF2447" stroke-width="2" stroke-linecap="round" stroke-linejoin="round" />
</symbol>
<symbol id="green-success" fill="none" xmlns="http://www.w3.org/2000/svg">
  <path d="M18.3337 6.41667L8.25042 16.5L3.66699 11.9167" stroke="#08AA83" stroke-width="1.5" stroke-linecap="round" stroke-linejoin="round" />
</symbol>
   <symbol id="icon-user-02" viewBox="0 0 32 32">
<path fill="#fff" style="fill: var(--color1, #fff); stroke: var(--color1, #fff)" stroke="#fff" stroke-linejoin="round" stroke-linecap="round" stroke-miterlimit="4" stroke-width="3.5556" d="M16.001 20c-4.227 0-7.986 2.041-10.379 5.208-0.515 0.682-0.773 1.022-0.764 1.483 0.007 0.356 0.23 0.805 0.51 1.025 0.362 0.284 0.865 0.284 1.869 0.284h17.527c1.004 0 1.507 0 1.869-0.284 0.28-0.22 0.503-0.669 0.51-1.025 0.009-0.461-0.249-0.801-0.764-1.483-2.393-3.167-6.152-5.208-10.379-5.208z"></path>
<path fill="#fff" style="fill: var(--color1, #fff); stroke: var(--color1, #fff)" stroke="#fff" stroke-linejoin="round" stroke-linecap="round" stroke-miterlimit="4" stroke-width="3.5556" d="M16 16c3.314 0 6-2.686 6-6s-2.686-6-6-6c-3.314 0-6 2.686-6 6s2.686 6 6 6z"></path>
</symbol>
<symbol id="icon-edit" viewBox="0 0 32 32">
<path fill="#fff4df" style="fill: var(--color1, #fff4df)" d="M16 0c8.837 0 16 7.163 16 16s-7.163 16-16 16c-8.837 0-16-7.163-16-16s7.163-16 16-16z"></path>
<path fill="none" stroke="#f6b83d" style="stroke: var(--color2, #f6b83d)" stroke-linejoin="round" stroke-linecap="round" stroke-miterlimit="4" stroke-width="1.2632" d="M19.158 10.316c0.166-0.166 0.363-0.297 0.58-0.387s0.449-0.136 0.684-0.136 0.467 0.046 0.684 0.136c0.217 0.090 0.414 0.221 0.58 0.387s0.297 0.363 0.387 0.58c0.090 0.217 0.136 0.449 0.136 0.684s-0.046 0.467-0.136 0.684c-0.090 0.217-0.221 0.414-0.387 0.58l-8.526 8.526-3.474 0.947 0.947-3.474 8.526-8.526z"></path>
</symbol>
<symbol id="loupe" fill="none" xmlns="http://www.w3.org/2000/svg">
  <path d="M8.25 14.25C11.5637 14.25 14.25 11.5637 14.25 8.25C14.25 4.93629 11.5637 2.25 8.25 2.25C4.93629 2.25 2.25 4.93629 2.25 8.25C2.25 11.5637 4.93629 14.25 8.25 14.25Z" stroke="#262626" stroke-width="1.5" stroke-linecap="round" stroke-linejoin="round" />
  <path d="M15.7508 15.75L12.4883 12.4875" stroke="#262626" stroke-width="1.5" stroke-linecap="round" stroke-linejoin="round" />
</symbol>
  
    <symbol id="icon-menu" viewBox="0 0 32 32">
      <path fill="none" stroke="#f9f9f9" stroke-linecap="round" stroke-linejoin="round" stroke-width="2.286" d="M4 16h24M4 8h24M12 24h16" style="stroke:var(--color1, #f9f9f9)"/>
    </symbol>

   <symbol id="arrow-left" fill="none" xmlns="http://www.w3.org/2000/svg">
  <path d="M8.83387 10.5917C8.75576 10.5142 8.69377 10.4221 8.65146 10.3205C8.60915 10.219 8.58737 10.11 8.58737 10C8.58737 9.89001 8.60915 9.78109 8.65146 9.67954C8.69377 9.57799 8.75576 9.48582 8.83387 9.40835L12.6589 5.59168C12.737 5.51421 12.799 5.42204 12.8413 5.32049C12.8836 5.21894 12.9054 5.11002 12.9054 5.00001C12.9054 4.89 12.8836 4.78108 12.8413 4.67953C12.799 4.57798 12.737 4.48581 12.6589 4.40834C12.5027 4.25313 12.2915 4.16602 12.0714 4.16602C11.8512 4.16602 11.64 4.25313 11.4839 4.40834L7.65887 8.23335C7.1907 8.7021 6.92773 9.33752 6.92773 10C6.92773 10.6625 7.1907 11.2979 7.65887 11.7667L11.4839 15.5917C11.6391 15.7457 11.8486 15.8324 12.0672 15.8334C12.1769 15.834 12.2856 15.813 12.3871 15.7715C12.4887 15.73 12.581 15.6689 12.6589 15.5917C12.737 15.5142 12.799 15.4221 12.8413 15.3205C12.8836 15.219 12.9054 15.11 12.9054 15C12.9054 14.89 12.8836 14.7811 12.8413 14.6795C12.799 14.578 12.737 14.4858 12.6589 14.4084L8.83387 10.5917Z" fill="#262626" fill-opacity="0.5" />
</symbol>
<symbol id="arrow-right" fill="none" xmlns="http://www.w3.org/2000/svg">
  <path d="M11.1661 10.5917C11.2442 10.5142 11.3062 10.422 11.3485 10.3205C11.3908 10.2189 11.4126 10.11 11.4126 10C11.4126 9.89001 11.3908 9.78108 11.3485 9.67953C11.3062 9.57798 11.2442 9.48582 11.1661 9.40835L7.34113 5.59168C7.26302 5.51421 7.20103 5.42204 7.15872 5.32049C7.11641 5.21894 7.09463 5.11002 7.09463 5.00001C7.09463 4.89 7.11641 4.78108 7.15872 4.67953C7.20103 4.57798 7.26302 4.48581 7.34113 4.40834C7.49727 4.25313 7.70848 4.16602 7.92863 4.16602C8.14879 4.16602 8.36 4.25313 8.51613 4.40834L12.3411 8.23335C12.8093 8.7021 13.0723 9.33751 13.0723 10C13.0723 10.6625 12.8093 11.2979 12.3411 11.7667L8.51613 15.5917C8.36091 15.7456 8.15142 15.8324 7.9328 15.8334C7.82313 15.834 7.71441 15.813 7.61288 15.7715C7.51134 15.73 7.419 15.6689 7.34113 15.5917C7.26302 15.5142 7.20103 15.4221 7.15872 15.3205C7.11641 15.219 7.09463 15.11 7.09463 15C7.09463 14.89 7.11641 14.7811 7.15872 14.6795C7.20103 14.578 7.26302 14.4858 7.34113 14.4084L11.1661 10.5917Z" fill="#262626" />
</symbol>
<symbol id="icon-angle-double-right" viewBox="0 0 16 28">
<path d="M9.297 15c0 0.125-0.063 0.266-0.156 0.359l-7.281 7.281c-0.094 0.094-0.234 0.156-0.359 0.156s-0.266-0.063-0.359-0.156l-0.781-0.781c-0.094-0.094-0.156-0.234-0.156-0.359s0.063-0.266 0.156-0.359l6.141-6.141-6.141-6.141c-0.094-0.094-0.156-0.234-0.156-0.359s0.063-0.266 0.156-0.359l0.781-0.781c0.094-0.094 0.234-0.156 0.359-0.156s0.266 0.063 0.359 0.156l7.281 7.281c0.094 0.094 0.156 0.234 0.156 0.359zM15.297 15c0 0.125-0.063 0.266-0.156 0.359l-7.281 7.281c-0.094 0.094-0.234 0.156-0.359 0.156s-0.266-0.063-0.359-0.156l-0.781-0.781c-0.094-0.094-0.156-0.234-0.156-0.359s0.063-0.266 0.156-0.359l6.141-6.141-6.141-6.141c-0.094-0.094-0.156-0.234-0.156-0.359s0.063-0.266 0.156-0.359l0.781-0.781c0.094-0.094 0.234-0.156 0.359-0.156s0.266 0.063 0.359 0.156l7.281 7.281c0.094 0.094 0.156 0.234 0.156 0.359z"></path>
</symbol>
<symbol id="icon-angle-double-left" viewBox="0 0 16 28">
<path d="M9.797 21.5c0 0.125-0.063 0.266-0.156 0.359l-0.781 0.781c-0.094 0.094-0.234 0.156-0.359 0.156s-0.266-0.063-0.359-0.156l-7.281-7.281c-0.094-0.094-0.156-0.234-0.156-0.359s0.063-0.266 0.156-0.359l7.281-7.281c0.094-0.094 0.234-0.156 0.359-0.156s0.266 0.063 0.359 0.156l0.781 0.781c0.094 0.094 0.156 0.234 0.156 0.359s-0.063 0.266-0.156 0.359l-6.141 6.141 6.141 6.141c0.094 0.094 0.156 0.234 0.156 0.359zM15.797 21.5c0 0.125-0.063 0.266-0.156 0.359l-0.781 0.781c-0.094 0.094-0.234 0.156-0.359 0.156s-0.266-0.063-0.359-0.156l-7.281-7.281c-0.094-0.094-0.156-0.234-0.156-0.359s0.063-0.266 0.156-0.359l7.281-7.281c0.094-0.094 0.234-0.156 0.359-0.156s0.266 0.063 0.359 0.156l0.781 0.781c0.094 0.094 0.156 0.234 0.156 0.359s-0.063 0.266-0.156 0.359l-6.141 6.141 6.141 6.141c0.094 0.094 0.156 0.234 0.156 0.359z"></path>
</symbol>

<symbol id="icon-keyboard_arrow_right" viewBox="0 0 24 24">
<path d="M8.578 16.594l4.594-4.594-4.594-4.594 1.406-1.406 6 6-6 6z"></path>
</symbol>
<symbol id="icon-keyboard_arrow_left" viewBox="0 0 24 24">
<path d="M15.422 16.594l-1.406 1.406-6-6 6-6 1.406 1.406-4.594 4.594z"></path>
</symbol>
<symbol id="star" fill="currentColor" xmlns="http://www.w3.org/2000/svg">
<path d="M6.20021 4.69703L8 1.28579L9.79979 4.69703C9.95896 4.9987 10.2491 5.20947 10.5851 5.26762L14.3856 5.92519L11.6975 8.69103C11.4598 8.93563 11.3489 9.27666 11.3975 9.61427L11.9465 13.4319L8.48537 11.7301C8.17929 11.5795 7.82071 11.5795 7.51463 11.7301L4.05348 13.4319L4.6025 9.61427C4.65105 9.27666 4.54024 8.93563 4.30252 8.69103L1.6144 5.92519L5.41486 5.26762C5.75095 5.20947 6.04104 4.9987 6.20021 4.69703Z"  stroke-width="1.2"/>
</symbol>
<svg id="favorite-heart" fill="currentColor" xmlns="http://www.w3.org/2000/svg">
  <path d="M15.6286 3.4574C15.2456 3.07416 14.7907 2.77014 14.2901 2.56272C13.7895 2.3553 13.253 2.24854 12.7111 2.24854C12.1693 2.24854 11.6327 2.3553 11.1321 2.56272C10.6315 2.77014 10.1767 3.07416 9.79362 3.4574L8.99862 4.2524L8.20362 3.4574C7.42985 2.68364 6.3804 2.24894 5.28612 2.24894C4.19185 2.24894 3.14239 2.68364 2.36862 3.4574C1.59486 4.23117 1.16016 5.28063 1.16016 6.3749C1.16016 7.46918 1.59486 8.51864 2.36862 9.2924L3.16362 10.0874L8.99862 15.9224L14.8336 10.0874L15.6286 9.2924C16.0119 8.90934 16.3159 8.45451 16.5233 7.95392C16.7307 7.45333 16.8375 6.91677 16.8375 6.3749C16.8375 5.83304 16.7307 5.29648 16.5233 4.79589C16.3159 4.29529 16.0119 3.84047 15.6286 3.4574Z"  stroke-width="1.5" stroke-linecap="round" stroke-linejoin="round" />
</svg>
<symbol id="icon-Vector" viewBox="0 0 64 32">
<path stroke-linejoin="round" stroke-linecap="round" stroke-miterlimit="4" stroke-width="8" d="M8 4l24 24 24-24"></path>
</symbol>
<symbol id="icon-cross-small" viewBox="0 0 32 32">
<path stroke-linejoin="round" stroke-linecap="round" stroke-miterlimit="4" stroke-width="2.6667" d="M25.333 6.667l-18.667 18.667M6.667 6.667l18.667 18.667"></path>
</symbol>
<symbol id="icon-upload-cloud" viewBox="0 0 32 32">
<path fill="none" stroke="#f6b83d" style="stroke: var(--color1, #f6b83d)" stroke-linejoin="round" stroke-linecap="round" stroke-miterlimit="4" stroke-width="2.3111" d="M16 16v12"></path>
<path fill="none" stroke="#f6b83d" style="stroke: var(--color1, #f6b83d)" stroke-linejoin="round" stroke-linecap="round" stroke-miterlimit="4" stroke-width="2.3111" d="M27.187 24.52c1.3-0.709 2.328-1.831 2.92-3.188s0.715-2.874 0.35-4.309-1.198-2.708-2.367-3.618c-1.169-0.909-2.608-1.404-4.089-1.405h-1.68c-0.404-1.561-1.156-3.010-2.2-4.239s-2.353-2.204-3.829-2.854-3.079-0.956-4.691-0.897c-1.611 0.059-3.188 0.483-4.612 1.24s-2.658 1.826-3.609 3.128c-0.951 1.302-1.595 2.803-1.882 4.389s-0.212 3.217 0.222 4.77c0.433 1.553 1.213 2.988 2.281 4.196"></path>
<path fill="none" stroke="#f6b83d" style="stroke: var(--color1, #f6b83d)" stroke-linejoin="round" stroke-linecap="round" stroke-miterlimit="4" stroke-width="2.3111" d="M21.333 21.333l-5.333-5.333-5.333 5.333"></path>
</symbol>
<symbol id="icon-plus" viewBox="0 0 32 32">
<path fill="none" stroke="#fff" style="stroke: var(--color1, #fff)" stroke-linejoin="round" stroke-linecap="round" stroke-miterlimit="4" stroke-width="2.6667" d="M16 6.667v18.667"></path>
<path fill="none" stroke="#fff" style="stroke: var(--color1, #fff)" stroke-linejoin="round" stroke-linecap="round" stroke-miterlimit="4" stroke-width="2.6667" d="M6.667 16h18.667"></path>
</symbol>
<symbol id="icon-female" viewBox="0 0 32 32">
<path fill="none" stroke="#f43f5e" style="stroke: var(--color1, #f43f5e)" stroke-linejoin="round" stroke-linecap="round" stroke-miterlimit="4" stroke-width="2.4" d="M16.001 17.333c3.682 0 6.667-2.985 6.667-6.667s-2.985-6.667-6.667-6.667c-3.682 0-6.667 2.985-6.667 6.667s2.985 6.667 6.667 6.667zM16.001 17.333v10.667M12.001 24h8"></path>
</symbol>
<symbol id="icon-male" viewBox="0 0 32 32">
<path fill="none" stroke="#54adff" style="stroke: var(--color1, #54adff)" stroke-linejoin="round" stroke-linecap="round" stroke-miterlimit="4" stroke-width="2.4" d="M16.001 14.667c-3.682 0-6.667 2.985-6.667 6.667s2.985 6.667 6.667 6.667c3.682 0 6.667-2.985 6.667-6.667s-2.985-6.667-6.667-6.667zM16.001 14.667v-10.667M16.001 4l5.333 5.333M16.001 4l-5.333 5.333"></path>
</symbol>
<symbol id="icon-icons8_cat-footprint" viewBox="0 0 32 32">
<path fill="#f6b83d" style="fill: var(--color1, #f6b83d)" d="M12.5 5c-1.070 0-2.002 0.608-2.594 1.438s-0.906 1.902-0.906 3.062c0 1.16 0.314 2.233 0.906 3.063s1.524 1.437 2.594 1.437c1.070 0 2.002-0.608 2.594-1.438s0.906-1.902 0.906-3.062c0-1.16-0.314-2.233-0.906-3.063s-1.524-1.437-2.594-1.437zM16 9.5c0 1.16 0.314 2.233 0.906 3.063s1.525 1.437 2.594 1.437c1.070 0 2.002-0.608 2.594-1.438s0.906-1.902 0.906-3.062c0-1.16-0.314-2.233-0.906-3.063s-1.524-1.437-2.594-1.437c-1.070 0-2.002 0.608-2.594 1.438s-0.906 1.902-0.906 3.062zM12.5 7c0.312 0 0.656 0.156 0.97 0.594 0.31 0.437 0.53 1.133 0.53 1.906s-0.22 1.47-0.53 1.906c-0.314 0.438-0.658 0.594-0.97 0.594s-0.656-0.156-0.97-0.594c-0.31-0.437-0.53-1.133-0.53-1.906s0.22-1.47 0.53-1.906c0.314-0.438 0.658-0.594 0.97-0.594zM19.5 7c0.312 0 0.656 0.156 0.97 0.594 0.31 0.437 0.53 1.133 0.53 1.906s-0.22 1.47-0.53 1.906c-0.314 0.438-0.658 0.594-0.97 0.594s-0.656-0.156-0.97-0.594c-0.31-0.437-0.53-1.133-0.53-1.906s0.22-1.47 0.53-1.906c0.314-0.438 0.658-0.594 0.97-0.594zM7.5 12c-1.070 0-2.002 0.608-2.594 1.438s-0.906 1.902-0.906 3.062c0 1.16 0.314 2.233 0.906 3.063s1.524 1.437 2.594 1.437c1.070 0 2.002-0.608 2.594-1.438s0.906-1.902 0.906-3.062c0-1.16-0.314-2.233-0.906-3.063s-1.524-1.437-2.594-1.437zM24.5 12c-1.070 0-2.002 0.608-2.594 1.438s-0.906 1.902-0.906 3.062c0 1.16 0.314 2.233 0.906 3.063s1.524 1.437 2.594 1.437c1.070 0 2.002-0.608 2.594-1.438s0.906-1.902 0.906-3.062c0-1.16-0.314-2.233-0.906-3.063s-1.524-1.437-2.594-1.437zM7.5 14c0.312 0 0.656 0.156 0.97 0.594 0.31 0.437 0.53 1.133 0.53 1.906s-0.22 1.47-0.53 1.906c-0.314 0.438-0.658 0.594-0.97 0.594s-0.656-0.156-0.97-0.594c-0.31-0.436-0.53-1.133-0.53-1.906s0.22-1.47 0.53-1.906c0.314-0.438 0.658-0.594 0.97-0.594zM24.5 14c0.312 0 0.656 0.156 0.97 0.594 0.31 0.437 0.53 1.133 0.53 1.906s-0.22 1.47-0.53 1.906c-0.314 0.438-0.658 0.594-0.97 0.594s-0.656-0.156-0.97-0.594c-0.31-0.437-0.53-1.133-0.53-1.906s0.22-1.47 0.53-1.906c0.314-0.438 0.658-0.594 0.97-0.594zM16 16c-1.333 0-2.263 0.865-2.72 1.625-0.454 0.76-0.734 1.392-1 1.656-0.153 0.157-1.118 0.52-2.124 1.033-0.503 0.257-1.010 0.6-1.437 1.125-0.43 0.525-0.72 1.25-0.72 2.063 0 1.92 1.58 3.5 3.5 3.5 0.866 0 1.77-0.28 2.655-0.53 0.889-0.256 1.846-0.472 1.846-0.472s0.957 0.216 1.844 0.47c0.886 0.25 1.79 0.53 2.656 0.53 1.92 0 3.5-1.58 3.5-3.5 0-0.794-0.293-1.52-0.72-2.030-0.425-0.513-0.937-0.83-1.436-1.095-1-0.53-1.983-0.95-2.125-1.094-0.24-0.237-0.51-0.89-0.97-1.654-0.459-0.767-1.409-1.627-2.749-1.627zM16 18c0.66 0 0.733 0.16 1.030 0.656 0.3 0.495 0.524 1.336 1.25 2.063 0.825 0.82 1.867 1 2.626 1.404 0.38 0.202 0.67 0.417 0.844 0.625 0.173 0.207 0.25 0.396 0.25 0.75 0 0.84-0.66 1.5-1.5 1.5-0.29 0-1.224-0.22-2.094-0.47-0.87-0.247-1.59-0.53-2.406-0.53s-1.536 0.283-2.406 0.53c-0.87 0.25-1.804 0.47-2.094 0.47-0.84 0-1.5-0.66-1.5-1.5 0-0.403 0.084-0.61 0.25-0.814 0.166-0.203 0.472-0.404 0.844-0.593 0.744-0.38 1.78-0.53 2.625-1.375 0.733-0.737 0.953-1.605 1.25-2.095 0.292-0.49 0.362-0.625 1.030-0.625l0.001 0.004z"></path>
</symbol>
<symbol id="icon-untitled" viewBox="0 0 31 32">
<path fill="#fff" style="fill: var(--color1, #fff)" d="M0 31.263h31.030v-31.030h-31.030v31.030z"></path>
</symbol>
<symbol id="icon-calendar" viewBox="0 0 32 32" fill="none" stroke="#262626">
<path stroke-linejoin="round" stroke-linecap="round" stroke-miterlimit="4" stroke-width="2.88" d="M25.333 5.333h-18.667c-1.473 0-2.667 1.194-2.667 2.667v18.667c0 1.473 1.194 2.667 2.667 2.667h18.667c1.473 0 2.667-1.194 2.667-2.667v-18.667c0-1.473-1.194-2.667-2.667-2.667z"></path>
<path stroke-linejoin="round" stroke-linecap="round" stroke-miterlimit="4" stroke-width="2.88" d="M21.333 2.667v5.333"></path>
<path stroke-linejoin="round" stroke-linecap="round" stroke-miterlimit="4" stroke-width="2.88" d="M10.667 2.667v5.333"></path>
<path stroke-linejoin="round" stroke-linecap="round" stroke-miterlimit="4" stroke-width="2.88" d="M4 13.333h24"></path>
</symbol>
 <symbol fill="none" xmlns="http://www.w3.org/2000/svg" viewBox="0 0 40 40" id="female">
    <rect width="40" height="40" rx="20" fill="#F43F5E"></rect>
    <path d="M20 21C22.7614 21 25 18.7614 25 16C25 13.2386 22.7614 11 20 11C17.2386 11 15 13.2386 15 16C15 18.7614 17.2386 21 20 21ZM20 21L20 29M17 26L23 26" stroke="white" stroke-width="1.5" stroke-linecap="round" stroke-linejoin="round"></path>
  </symbol>
  <symbol fill="none" xmlns="http://www.w3.org/2000/svg" viewBox="0 0 32 32" id="femalenoactive">
    <rect width="32" height="32" rx="16" fill="#F43F5E" fill-opacity="0.1"></rect>
    <path d="M16.0007 16.8333C18.3018 16.8333 20.1673 14.9679 20.1673 12.6667C20.1673 10.3655 18.3018 8.5 16.0007 8.5C13.6995 8.5 11.834 10.3655 11.834 12.6667C11.834 14.9679 13.6995 16.8333 16.0007 16.8333ZM16.0007 16.8333L16.0007 23.5M13.5007 21L18.5007 21" stroke="#F43F5E" stroke-width="1.5" stroke-linecap="round" stroke-linejoin="round"></path>
  </symbol>
  <symbol fill="none" xmlns="http://www.w3.org/2000/svg" viewBox="0 0 40 40" id="male">
    <rect width="40" height="40" rx="20" fill="#54ADFF"></rect>
    <path d="M20 19C17.2386 19 15 21.2386 15 24C15 26.7614 17.2386 29 20 29C22.7614 29 25 26.7614 25 24C25 21.2386 22.7614 19 20 19ZM20 19V11M20 11L24 15M20 11L16 15" stroke="white" stroke-width="1.5" stroke-linecap="round" stroke-linejoin="round"></path>
  </symbol>
  <symbol fill="none" xmlns="http://www.w3.org/2000/svg" viewBox="0 0 32 32" id="malenoactive">
    <rect width="32" height="32" rx="16" fill="#54ADFF" fill-opacity="0.1"></rect>
    <path d="M16.0007 15.1667C13.6995 15.1667 11.834 17.0321 11.834 19.3333C11.834 21.6345 13.6995 23.5 16.0007 23.5C18.3018 23.5 20.1673 21.6345 20.1673 19.3333C20.1673 17.0321 18.3018 15.1667 16.0007 15.1667ZM16.0007 15.1667V8.5M16.0007 8.5L19.334 11.8333M16.0007 8.5L12.6673 11.8333" stroke="#54ADFF" stroke-width="1.5" stroke-linecap="round" stroke-linejoin="round"></path>
  </symbol>
  <symbol fill="none" xmlns="http://www.w3.org/2000/svg" viewBox="0 0 40 40" id="multiple">
    <rect width="40" height="40" rx="20" fill="#F6B83D"></rect>
    <path fill-rule="evenodd" clip-rule="evenodd" d="M16.7707 15.745C16.0531 15.4647 15.2631 15.4292 14.5232 15.6439C13.7833 15.8586 13.1349 16.3115 12.6788 16.9323C12.2226 17.5531 11.9841 18.3072 12.0003 19.0774C12.0165 19.8477 12.2865 20.591 12.7683 21.1921C13.2502 21.7932 13.917 22.2185 14.6652 22.4019C15.4135 22.5853 16.2014 22.5166 16.9066 22.2064C17.6118 21.8963 18.1949 21.362 18.5655 20.6866C18.936 20.0111 19.0732 19.2323 18.9558 18.4709C18.9459 18.406 18.9488 18.3398 18.9644 18.276C18.98 18.2123 19.008 18.1522 19.0468 18.0993C19.0857 18.0463 19.1345 18.0016 19.1906 17.9675C19.2468 17.9335 19.309 17.9108 19.3739 17.9009C19.4388 17.8909 19.505 17.8938 19.5688 17.9094C19.6325 17.925 19.6926 17.953 19.7455 17.9918C19.7985 18.0307 19.8432 18.0795 19.8773 18.1357C19.9113 18.1918 19.934 18.2541 19.9439 18.3189C20.0947 19.2979 19.9181 20.2992 19.4416 21.1675C18.9651 22.0358 18.2153 22.7226 17.3086 23.1213C16.4019 23.5199 15.389 23.6081 14.427 23.3723C13.465 23.1364 12.6078 22.5896 11.9883 21.8168C11.3689 21.0439 11.0218 20.0882 11.001 19.098C10.9802 18.1077 11.2868 17.1383 11.8733 16.3401C12.4597 15.5419 13.2933 14.9596 14.2445 14.6836C15.1957 14.4075 16.2114 14.4531 17.1341 14.8134C17.1961 14.8366 17.2528 14.8719 17.301 14.9173C17.3492 14.9626 17.388 15.0171 17.4149 15.0775C17.4419 15.138 17.4566 15.2032 17.4582 15.2694C17.4598 15.3355 17.4482 15.4014 17.4242 15.463C17.4001 15.5247 17.364 15.5809 17.3181 15.6286C17.2721 15.6762 17.2171 15.7142 17.1563 15.7404C17.0955 15.7665 17.0301 15.7804 16.9639 15.7811C16.8977 15.7818 16.8321 15.7699 16.7707 15.745Z" fill="white"></path>
    <path fill-rule="evenodd" clip-rule="evenodd" d="M14.998 27.5002V23.5018C14.998 23.3693 15.0507 23.2421 15.1444 23.1484C15.2382 23.0547 15.3653 23.002 15.4978 23.002C15.6304 23.002 15.7575 23.0547 15.8513 23.1484C15.945 23.2421 15.9976 23.3693 15.9976 23.5018V27.5002C15.9976 27.6328 15.945 27.7599 15.8513 27.8536C15.7575 27.9473 15.6304 28 15.4978 28C15.3653 28 15.2382 27.9473 15.1444 27.8536C15.0507 27.7599 14.998 27.6328 14.998 27.5002Z" fill="white"></path>
    <path fill-rule="evenodd" clip-rule="evenodd" d="M13.499 25.0012C13.499 24.8687 13.5517 24.7415 13.6454 24.6478C13.7391 24.5541 13.8663 24.5014 13.9988 24.5014H16.9976C17.1302 24.5014 17.2573 24.5541 17.351 24.6478C17.4447 24.7415 17.4974 24.8687 17.4974 25.0012C17.4974 25.1338 17.4447 25.2609 17.351 25.3546C17.2573 25.4484 17.1302 25.501 16.9976 25.501H13.9988C13.8663 25.501 13.7391 25.4484 13.6454 25.3546C13.5517 25.2609 13.499 25.1338 13.499 25.0012ZM22.4464 15.6365C21.8925 15.4802 21.3086 15.4628 20.7464 15.5861C20.1843 15.7094 19.6612 15.9695 19.2236 16.3433C18.786 16.7171 18.4473 17.1931 18.2377 17.7291C18.028 18.265 17.9538 18.8445 18.0217 19.416C18.0298 19.4813 18.0249 19.5476 18.0073 19.6111C17.9897 19.6746 17.9598 19.7339 17.9191 19.7858C17.8785 19.8376 17.8281 19.8809 17.7707 19.9132C17.7133 19.9455 17.6501 19.9661 17.5847 19.9738C17.5193 19.9816 17.453 19.9764 17.3896 19.9585C17.3263 19.9405 17.2671 19.9103 17.2154 19.8694C17.1638 19.8285 17.1208 19.7778 17.0888 19.7203C17.0568 19.6627 17.0365 19.5994 17.0291 19.5339C16.9123 18.5504 17.1235 17.5557 17.6298 16.7044C18.136 15.8531 18.9092 15.1927 19.8292 14.8257C20.7491 14.4587 21.7645 14.4056 22.7178 14.6746C23.671 14.9437 24.5088 15.5198 25.1011 16.3137C25.6935 17.1076 26.0072 18.0748 25.9936 19.0652C25.9801 20.0556 25.64 21.0138 25.0262 21.7912C24.4124 22.5686 23.5592 23.1216 22.5989 23.3645C21.6387 23.6074 20.6251 23.5265 19.7155 23.1345C19.6552 23.1085 19.6006 23.0709 19.5549 23.0239C19.5091 22.9768 19.4731 22.9212 19.4488 22.8602C19.3998 22.7371 19.4017 22.5995 19.4541 22.4777C19.5065 22.356 19.6052 22.2601 19.7283 22.211C19.8515 22.162 19.9891 22.1639 20.1108 22.2163C20.5506 22.4058 21.0245 22.503 21.5033 22.5019C21.9821 22.5008 22.4556 22.4014 22.8944 22.2099C23.3332 22.0184 23.7281 21.7389 24.0546 21.3886C24.381 21.0384 24.6321 20.6248 24.7922 20.1736C24.9524 19.7224 25.0182 19.2431 24.9857 18.7654C24.9531 18.2877 24.8229 17.8218 24.603 17.3965C24.3831 16.9712 24.0782 16.5955 23.7072 16.2928C23.3363 15.9901 22.9072 15.7667 22.4464 15.6365Z" fill="white"></path>
    <path fill-rule="evenodd" clip-rule="evenodd" d="M24.3915 16.6081C24.2978 16.5144 24.2451 16.3873 24.2451 16.2548C24.2451 16.1222 24.2978 15.9951 24.3915 15.9014L28.1399 12.1529C28.186 12.1052 28.2412 12.0671 28.3022 12.0409C28.3631 12.0147 28.4287 12.0009 28.4951 12.0004C28.5614 11.9998 28.6273 12.0124 28.6887 12.0376C28.7501 12.0627 28.8059 12.0998 28.8528 12.1467C28.8998 12.1937 28.9369 12.2495 28.962 12.3109C28.9871 12.3723 28.9998 12.4381 28.9992 12.5045C28.9986 12.5708 28.9848 12.6364 28.9586 12.6974C28.9325 12.7584 28.8944 12.8135 28.8466 12.8596L25.0982 16.6081C25.0044 16.7018 24.8773 16.7545 24.7448 16.7545C24.6123 16.7545 24.4852 16.7018 24.3915 16.6081Z" fill="white"></path>
    <path fill-rule="evenodd" clip-rule="evenodd" d="M28.455 15.5051C28.3893 15.5042 28.3245 15.4905 28.2642 15.4646C28.2039 15.4387 28.1493 15.4011 28.1035 15.3541C28.0577 15.3071 28.0216 15.2515 27.9972 15.1905C27.9729 15.1296 27.9608 15.0644 27.9617 14.9988L27.9867 13.0126L26.0005 13.0376C25.8679 13.0393 25.7401 12.9883 25.6452 12.8958C25.5502 12.8033 25.4959 12.6768 25.4942 12.5443C25.4925 12.4117 25.5435 12.2839 25.636 12.189C25.7285 12.094 25.8549 12.0397 25.9875 12.038L28.9993 12L28.9613 15.0118C28.9604 15.0774 28.9467 15.1422 28.9208 15.2026C28.8949 15.2629 28.8573 15.3175 28.8103 15.3633C28.7633 15.4091 28.7077 15.4452 28.6467 15.4695C28.5858 15.4939 28.5206 15.5059 28.455 15.5051Z" fill="white"></path>
  </symbol>
  <symbol fill="none" xmlns="http://www.w3.org/2000/svg" viewBox="0 0 32 32" id="multiplenoactive">
    <rect width="32" height="32" rx="16" fill="#FFF4DF"></rect>
    <path fill-rule="evenodd" clip-rule="evenodd" d="M13.3089 12.4542C12.7109 12.2206 12.0525 12.191 11.436 12.3699C10.8194 12.5488 10.2791 12.9262 9.89898 13.4436C9.51884 13.961 9.32009 14.5893 9.33359 15.2312C9.34708 15.873 9.57206 16.4925 9.97361 16.9934C10.3752 17.4944 10.9308 17.8487 11.5544 18.0016C12.1779 18.1544 12.8345 18.0972 13.4221 17.8387C14.0098 17.5802 14.4958 17.135 14.8045 16.5722C15.1133 16.0093 15.2277 15.3602 15.1299 14.7257C15.1216 14.6717 15.124 14.6165 15.137 14.5634C15.15 14.5102 15.1733 14.4602 15.2057 14.4161C15.238 14.372 15.2788 14.3347 15.3255 14.3063C15.3723 14.2779 15.4242 14.259 15.4783 14.2507C15.5323 14.2424 15.5875 14.2448 15.6406 14.2578C15.6938 14.2708 15.7438 14.2942 15.7879 14.3265C15.832 14.3589 15.8694 14.3996 15.8977 14.4464C15.9261 14.4931 15.945 14.545 15.9533 14.5991C16.0789 15.4149 15.9318 16.2493 15.5347 16.9729C15.1376 17.6965 14.5128 18.2688 13.7572 18.601C13.0016 18.9333 12.1575 19.0068 11.3558 18.8102C10.5542 18.6137 9.83983 18.158 9.32361 17.514C8.80738 16.87 8.51816 16.0735 8.50083 15.2483C8.48349 14.4231 8.73901 13.6152 9.22773 12.9501C9.71645 12.2849 10.411 11.7997 11.2037 11.5696C11.9964 11.3396 12.8429 11.3776 13.6117 11.6778C13.6634 11.6972 13.7107 11.7266 13.7509 11.7644C13.791 11.8022 13.8233 11.8476 13.8458 11.898C13.8683 11.9483 13.8805 12.0027 13.8819 12.0578C13.8832 12.1129 13.8735 12.1678 13.8535 12.2192C13.8334 12.2706 13.8034 12.3175 13.7651 12.3571C13.7267 12.3968 13.6809 12.4285 13.6302 12.4503C13.5796 12.4721 13.5251 12.4837 13.4699 12.4842C13.4148 12.4848 13.3601 12.4749 13.3089 12.4542Z" fill="#F6B83D"></path>
    <path fill-rule="evenodd" clip-rule="evenodd" d="M11.832 22.2502V18.9182C11.832 18.8077 11.8759 18.7018 11.954 18.6237C12.0321 18.5456 12.1381 18.5017 12.2485 18.5017C12.359 18.5017 12.4649 18.5456 12.543 18.6237C12.6211 18.7018 12.665 18.8077 12.665 18.9182V22.2502C12.665 22.3606 12.6211 22.4666 12.543 22.5447C12.4649 22.6228 12.359 22.6667 12.2485 22.6667C12.1381 22.6667 12.0321 22.6228 11.954 22.5447C11.8759 22.4666 11.832 22.3606 11.832 22.2502Z" fill="#F6B83D"></path>
    <path fill-rule="evenodd" clip-rule="evenodd" d="M10.582 20.1677C10.582 20.0572 10.6259 19.9513 10.704 19.8732C10.7821 19.7951 10.8881 19.7512 10.9985 19.7512H13.4975C13.608 19.7512 13.7139 19.7951 13.792 19.8732C13.8701 19.9513 13.914 20.0572 13.914 20.1677C13.914 20.2781 13.8701 20.3841 13.792 20.4622C13.7139 20.5403 13.608 20.5842 13.4975 20.5842H10.9985C10.8881 20.5842 10.7821 20.5403 10.704 20.4622C10.6259 20.3841 10.582 20.2781 10.582 20.1677ZM18.0382 12.3638C17.5766 12.2335 17.09 12.219 16.6215 12.3218C16.1531 12.4245 15.7172 12.6412 15.3525 12.9527C14.9878 13.2642 14.7056 13.6609 14.5309 14.1076C14.3562 14.5542 14.2944 15.0371 14.3509 15.5133C14.3577 15.5678 14.3536 15.623 14.3389 15.6759C14.3243 15.7288 14.2993 15.7783 14.2655 15.8215C14.2316 15.8647 14.1896 15.9008 14.1417 15.9277C14.0939 15.9546 14.0412 15.9717 13.9867 15.9782C13.9322 15.9847 13.877 15.9803 13.8242 15.9654C13.7714 15.9504 13.7221 15.9252 13.679 15.8912C13.636 15.8571 13.6002 15.8149 13.5735 15.7669C13.5469 15.7189 13.5299 15.6661 13.5238 15.6116C13.4264 14.792 13.6024 13.9631 14.0243 13.2537C14.4462 12.5442 15.0905 11.9939 15.8571 11.6881C16.6238 11.3822 17.47 11.338 18.2643 11.5622C19.0587 11.7864 19.7569 12.2665 20.2505 12.9281C20.7441 13.5897 21.0055 14.3956 20.9942 15.221C20.9829 16.0463 20.6995 16.8448 20.188 17.4927C19.6765 18.1405 18.9655 18.6013 18.1653 18.8037C17.3651 19.0061 16.5204 18.9388 15.7624 18.6121C15.7122 18.5904 15.6667 18.5591 15.6286 18.5199C15.5904 18.4807 15.5604 18.4344 15.5402 18.3835C15.4993 18.2809 15.5009 18.1663 15.5446 18.0648C15.5883 17.9633 15.6705 17.8834 15.7731 17.8425C15.8758 17.8017 15.9904 17.8033 16.0919 17.847C16.4583 18.0048 16.8533 18.0858 17.2523 18.0849C17.6513 18.084 18.0458 18.0012 18.4115 17.8416C18.7772 17.682 19.1063 17.4491 19.3783 17.1572C19.6503 16.8653 19.8596 16.5207 19.993 16.1447C20.1265 15.7687 20.1814 15.3693 20.1543 14.9712C20.1271 14.5731 20.0186 14.1848 19.8353 13.8304C19.6521 13.476 19.398 13.1629 19.0889 12.9107C18.7798 12.6584 18.4221 12.4723 18.0382 12.3638Z" fill="#F6B83D"></path>
    <path fill-rule="evenodd" clip-rule="evenodd" d="M19.6591 13.1734C19.581 13.0953 19.5371 12.9894 19.5371 12.879C19.5371 12.7685 19.581 12.6626 19.6591 12.5845L22.7828 9.46078C22.8212 9.421 22.8672 9.38927 22.918 9.36744C22.9688 9.34561 23.0234 9.33412 23.0787 9.33364C23.134 9.33316 23.1889 9.3437 23.2401 9.36464C23.2913 9.38558 23.3378 9.41651 23.3769 9.45562C23.416 9.49472 23.4469 9.54122 23.4678 9.59241C23.4888 9.6436 23.4993 9.69844 23.4988 9.75374C23.4984 9.80904 23.4869 9.8637 23.4651 9.91451C23.4432 9.96533 23.4115 10.0113 23.3717 10.0497L20.248 13.1734C20.1699 13.2515 20.064 13.2954 19.9535 13.2954C19.8431 13.2954 19.7372 13.2515 19.6591 13.1734Z" fill="#F6B83D"></path>
    <path fill-rule="evenodd" clip-rule="evenodd" d="M23.0455 12.2542C22.9908 12.2535 22.9368 12.2421 22.8865 12.2205C22.8362 12.1989 22.7907 12.1676 22.7526 12.1284C22.7144 12.0892 22.6843 12.0429 22.664 11.9921C22.6438 11.9413 22.6337 11.887 22.6344 11.8323L22.6552 10.1772L21.0001 10.198C20.8896 10.1994 20.7831 10.1569 20.704 10.0798C20.6249 10.0027 20.5796 9.89736 20.5782 9.7869C20.5767 9.67644 20.6192 9.56993 20.6963 9.49081C20.7734 9.41168 20.8788 9.36643 20.9892 9.36499L23.4991 9.33334L23.4674 11.8431C23.4667 11.8978 23.4552 11.9519 23.4336 12.0021C23.4121 12.0524 23.3808 12.0979 23.3416 12.1361C23.3024 12.1743 23.2561 12.2043 23.2053 12.2246C23.1545 12.2449 23.1002 12.2549 23.0455 12.2542Z" fill="#F6B83D"></path>
  </symbol>
   <symbol id="icon-trash-2" viewBox="0 0 32 32">
<path fill="none"  stroke-linejoin="round" stroke-linecap="round" stroke-miterlimit="4" stroke-width="2.6667" d="M4 8h24"></path>
<path fill="none"  stroke-linejoin="round" stroke-linecap="round" stroke-miterlimit="4" stroke-width="2.6667" d="M25.333 8v18.667c0 0.707-0.281 1.386-0.781 1.886s-1.178 0.781-1.886 0.781h-13.333c-0.707 0-1.386-0.281-1.886-0.781s-0.781-1.178-0.781-1.886v-18.667M10.667 8v-2.667c0-0.707 0.281-1.386 0.781-1.886s1.178-0.781 1.886-0.781h5.333c0.707 0 1.386 0.281 1.886 0.781s0.781 1.178 0.781 1.886v2.667"></path>
<path fill="none"  stroke-linejoin="round" stroke-linecap="round" stroke-miterlimit="4" stroke-width="2.6667" d="M13.333 14.667v8"></path>
<path fill="none" stroke-linejoin="round" stroke-linecap="round" stroke-miterlimit="4" stroke-width="2.6667" d="M18.667 14.667v8"></path>
</symbol>
  </defs>
</svg>

